<svg xmlns="http://www.w3.org/2000/svg" viewBox="0 0 900 700">
  <rect width="900" height="700" fill="#fff7ed"/>
  <rect x="80" y="80" width="740" height="540" rx="36" fill="#fde68a"/>
  <rect x="115" y="120" width="670" height="460" rx="28" fill="#fffaf3"/>
  <circle cx="290" cy="265" r="105" fill="#fed7aa"/>
  <path d="M185 520 C195 395, 250 350, 315 350 C380 350, 435 395, 445 520 Z" fill="#1f2937"/>
  <path d="M190 245 C210 130, 365 120, 390 245 C360 195, 230 195, 190 245 Z" fill="#7c2d12"/>
  <circle cx="255" cy="255" r="10" fill="#111827"/>
  <circle cx="330" cy="255" r="10" fill="#111827"/>
  <path d="M255 305 C278 330, 307 330, 330 305" stroke="#9a3412" stroke-width="10" fill="none" stroke-linecap="round"/>
  <circle cx="560" cy="240" r="98" fill="#fecdd3"/>
  <path d="M470 530 C485 395, 535 350, 600 350 C660 350, 720 395, 735 530 Z" fill="#be185d"/>
  <path d="M470 245 C490 110, 645 120, 660 245 C620 185, 510 185, 470 245 Z" fill="#4a044e"/>
  <circle cx="525" cy="240" r="10" fill="#111827"/>
  <circle cx="595" cy="240" r="10" fill="#111827"/>
  <path d="M525 292 C545 318, 575 318, 595 292" stroke="#be185d" stroke-width="10" fill="none" stroke-linecap="round"/>
  <rect x="645" y="170" width="62" height="200" rx="18" fill="#fb7185"/>
  <rect x="665" y="145" width="24" height="45" rx="10" fill="#7c2d12"/>
  <circle cx="690" cy="455" r="58" fill="#fda4af"/>
  <circle cx="690" cy="455" r="44" fill="#fff1f2"/>
  <path d="M150 160 L170 132" stroke="#f59e0b" stroke-width="12" stroke-linecap="round"/>
  <path d="M748 145 L775 120" stroke="#fb7185" stroke-width="12" stroke-linecap="round"/>
</svg>
